<svg width="57" height="57" viewBox="0 0 57 57" fill="none" xmlns="http://www.w3.org/2000/svg">
<path d="M31.36 9.19012L31.3452 17.7314L31.3301 26.2728L30.6315 24.29L30.6302 24.2862L29.7275 43.3015C30.6152 45.8229 31.0906 47.1688 31.0959 47.1742C31.1028 47.1813 31.6088 47.212 32.2199 47.2425C34.0718 47.3349 36.3667 47.5329 38.1076 47.7506C38.5107 47.8009 38.8576 47.8268 38.8786 47.8078C38.8994 47.7891 38.9107 39.0924 38.9038 28.482L38.891 9.19012H31.36Z" fill="#B1060F" stroke="black" stroke-width="0.611984"/>
<path d="M17.7388 9.16454V28.476C17.7388 39.0973 17.7492 47.7978 17.7618 47.8105C17.7744 47.8232 18.4283 47.7611 19.215 47.6725C20.0014 47.5839 21.0887 47.4737 21.6308 47.4276C22.4622 47.357 24.9444 47.1964 25.2317 47.1947C25.3154 47.1942 25.3207 46.7605 25.3328 39.0154L25.3457 30.8363L25.9462 32.5457L26.1587 33.1497L27.0611 14.1391L26.751 13.2574C26.2878 11.9396 25.8243 10.6219 25.3603 9.30437L25.3105 9.16454H17.7388Z" fill="#B1060F" stroke="black" stroke-width="0.611984"/>
<path d="M17.7388 9.16454V20.0046L25.3302 40.2609C25.3311 39.7967 25.332 39.546 25.3328 39.0154L25.3457 30.8363L25.9462 32.5457C29.2895 42.0616 31.0855 47.1635 31.0961 47.1742C31.103 47.1813 31.609 47.212 32.2201 47.2425C34.072 47.3349 36.3669 47.5329 38.1078 47.7506C38.5109 47.801 38.8578 47.8268 38.8788 47.8079C38.8929 47.7949 38.9025 43.5306 38.9049 37.5151L31.3489 15.6637L31.3454 17.7315L31.3303 26.2728L30.6317 24.29C29.9491 22.3527 29.4933 21.0571 26.751 13.2574C26.2878 11.9396 25.8243 10.6219 25.3603 9.30437L25.3105 9.16454H17.7388Z" fill="url(#paint0_radial_4_954)"/>
<path d="M17.7388 9.16454L25.3455 30.8461V30.8363L25.946 32.5457C29.2892 42.0616 31.0853 47.1635 31.0959 47.1742C31.1028 47.1813 31.6088 47.212 32.2199 47.2425C34.0717 47.3349 36.3667 47.5329 38.1076 47.7506C38.5087 47.8007 38.8535 47.8264 38.8779 47.8081L31.3299 26.269V26.2728L30.6313 24.29C29.9486 22.3527 29.4929 21.0571 26.7506 13.2574C26.013 11.16 25.3873 9.38141 25.3598 9.30437L25.31 9.16454H17.7388Z" fill="#E50914"/>
<path d="M31.36 9.19012L31.3452 17.7314L31.3301 26.2728L30.6315 24.29L30.6302 24.2862L29.7275 43.3015C30.6152 45.8229 31.0906 47.1688 31.0959 47.1742C31.1028 47.1813 31.6088 47.212 32.2199 47.2425C34.0718 47.3349 36.3667 47.5329 38.1076 47.7506C38.5107 47.8009 38.8576 47.8268 38.8786 47.8078C38.8994 47.7891 38.9107 39.0924 38.9038 28.482L38.891 9.19012H31.36Z" fill="#B1060F" stroke="black" stroke-width="0.611984"/>
<path d="M17.7388 9.16454V28.476C17.7388 39.0973 17.7492 47.7978 17.7618 47.8105C17.7744 47.8232 18.4283 47.7611 19.215 47.6725C20.0014 47.5839 21.0887 47.4737 21.6308 47.4276C22.4622 47.357 24.9444 47.1964 25.2317 47.1947C25.3154 47.1942 25.3207 46.7605 25.3328 39.0154L25.3457 30.8363L25.9462 32.5457L26.1587 33.1497L27.0611 14.1391L26.751 13.2574C26.2878 11.9396 25.8243 10.6219 25.3603 9.30437L25.3105 9.16454H17.7388Z" fill="#B1060F" stroke="black" stroke-width="0.611984"/>
<path d="M17.7388 9.16454V20.0046L25.3302 40.2609C25.3311 39.7967 25.332 39.546 25.3328 39.0154L25.3457 30.8363L25.9462 32.5457C29.2895 42.0616 31.0855 47.1635 31.0961 47.1742C31.103 47.1813 31.609 47.212 32.2201 47.2425C34.072 47.3349 36.3669 47.5329 38.1078 47.7506C38.5109 47.801 38.8578 47.8268 38.8788 47.8079C38.8929 47.7949 38.9025 43.5306 38.9049 37.5151L31.3489 15.6637L31.3454 17.7315L31.3303 26.2728L30.6317 24.29C29.9491 22.3527 29.4933 21.0571 26.751 13.2574C26.2878 11.9396 25.8243 10.6219 25.3603 9.30437L25.3105 9.16454H17.7388Z" fill="url(#paint1_radial_4_954)"/>
<path d="M17.7388 9.16454L25.3455 30.8461V30.8363L25.946 32.5457C29.2892 42.0616 31.0853 47.1635 31.0959 47.1742C31.1028 47.1813 31.6088 47.212 32.2199 47.2425C34.0717 47.3349 36.3667 47.5329 38.1076 47.7506C38.5087 47.8007 38.8535 47.8264 38.8779 47.8081L31.3299 26.269V26.2728L30.6313 24.29C29.9486 22.3527 29.4929 21.0571 26.7506 13.2574C26.013 11.16 25.3873 9.38141 25.3598 9.30437L25.31 9.16454H17.7388Z" fill="#E50914"/>
<defs>
<radialGradient id="paint0_radial_4_954" cx="0" cy="0" r="1" gradientUnits="userSpaceOnUse" gradientTransform="translate(27.9705 15.6199) scale(14.909 14.9971)">
<stop/>
<stop offset="1" stop-opacity="0"/>
</radialGradient>
<radialGradient id="paint1_radial_4_954" cx="0" cy="0" r="1" gradientUnits="userSpaceOnUse" gradientTransform="translate(27.9705 15.6199) scale(14.909 14.9971)">
<stop/>
<stop offset="1" stop-opacity="0"/>
</radialGradient>
</defs>
</svg>
