<svg width="21" height="20" viewBox="0 0 21 20" fill="none" xmlns="http://www.w3.org/2000/svg">
<g id="ant-design:search-outlined">
<path id="Vector" d="M18.428 16.6895L13.1666 11.6172C13.9831 10.5996 14.4248 9.35547 14.4248 8.04688C14.4248 6.48047 13.7906 5.01172 12.6439 3.9043C11.4973 2.79687 9.96969 2.1875 8.3469 2.1875C6.72411 2.1875 5.19655 2.79883 4.04986 3.9043C2.90114 5.00977 2.26904 6.48047 2.26904 8.04688C2.26904 9.61133 2.90317 11.084 4.04986 12.1895C5.19655 13.2969 6.72209 13.9062 8.3469 13.9062C9.70429 13.9062 10.9928 13.4805 12.0483 12.6953L17.3097 17.7656C17.3251 17.7805 17.3435 17.7923 17.3636 17.8004C17.3838 17.8084 17.4054 17.8126 17.4272 17.8126C17.4491 17.8126 17.4707 17.8084 17.4908 17.8004C17.511 17.7923 17.5293 17.7805 17.5447 17.7656L18.428 16.916C18.4435 16.9011 18.4557 16.8835 18.4641 16.864C18.4724 16.8446 18.4767 16.8238 18.4767 16.8027C18.4767 16.7817 18.4724 16.7609 18.4641 16.7414C18.4557 16.722 18.4435 16.7043 18.428 16.6895ZM11.556 11.1406C10.697 11.9668 9.55842 12.4219 8.3469 12.4219C7.13538 12.4219 5.9968 11.9668 5.13779 11.1406C4.28081 10.3125 3.80877 9.21484 3.80877 8.04688C3.80877 6.87891 4.28081 5.7793 5.13779 4.95312C5.9968 4.12695 7.13538 3.67188 8.3469 3.67188C9.55842 3.67188 10.699 4.125 11.556 4.95312C12.413 5.78125 12.885 6.87891 12.885 8.04688C12.885 9.21484 12.413 10.3145 11.556 11.1406Z" fill="#C4C4C4"/>
</g>
</svg>
