<svg width="15" height="15" viewBox="0 0 15 15" fill="none" xmlns="http://www.w3.org/2000/svg">
<path d="M6.36652 7.14871V12H5.48873V7.99969H5.46193L4.32951 8.72337V7.92599L5.52893 7.14871H6.36652ZM9.3144 12.067C8.14848 12.067 7.45161 11.1624 7.45161 9.57435C7.45161 7.99299 8.14848 7.0817 9.3144 7.0817C10.4736 7.0817 11.1772 7.99299 11.1772 9.57435C11.1772 11.1624 10.4803 12.067 9.3144 12.067ZM9.3144 11.3366C9.92416 11.3366 10.2994 10.7403 10.2994 9.57435C10.2994 8.41513 9.91746 7.80537 9.3144 7.80537C8.71134 7.80537 8.3294 8.41513 8.3294 9.57435C8.3294 10.7403 8.70464 11.3366 9.3144 11.3366Z" fill="white"/>
<path d="M3.39257 3.88145V3.41734H5.84933V3.88145H4.89984V6.5H4.34632V3.88145H3.39257ZM8.8774 4.95867C8.8774 5.955 8.27279 6.54258 7.46381 6.54258C6.65482 6.54258 6.05021 5.95074 6.05021 4.95867C6.05021 3.96234 6.65482 3.37477 7.46381 3.37477C8.27279 3.37477 8.8774 3.96234 8.8774 4.95867ZM8.31963 4.95867C8.31963 4.25613 7.96623 3.87293 7.46381 3.87293C6.96139 3.87293 6.60799 4.25613 6.60799 4.95867C6.60799 5.66121 6.96139 6.04441 7.46381 6.04441C7.96623 6.04441 8.31963 5.66121 8.31963 4.95867ZM9.35079 6.5V3.41734H10.5089C11.2157 3.41734 11.5947 3.84738 11.5947 4.43922C11.5947 5.03105 11.2115 5.45684 10.5004 5.45684H9.9043V6.5H9.35079ZM9.9043 5.00125H10.4238C10.841 5.00125 11.0284 4.76707 11.0284 4.43922C11.0284 4.10711 10.841 3.88145 10.4238 3.88145H9.9043V5.00125Z" fill="white"/>
<rect x="0.5" y="0.5" width="14" height="14" stroke="white"/>
</svg>
